<svg width="20" height="12" viewBox="0 0 20 12" fill="none" xmlns="http://www.w3.org/2000/svg">
<style>
		svg { cursor: pointer;} 
	</style>
<path d="M19.4141 7.26393H18.7766L16.7349 2.32553C17.0208 2.28663 17.2413 2.04217 17.2413 1.74561C17.2413 1.42202 16.979 1.15967 16.6554 1.15967H11.6177C11.3769 0.490884 10.7363 0.0113525 9.98559 0.0113525C9.23488 0.0113525 8.59422 0.490923 8.3534 1.15967H3.34465C3.02105 1.15967 2.75871 1.42202 2.75871 1.74561C2.75871 2.04217 2.97926 2.28663 3.26512 2.32553L1.22344 7.26393H0.585938C0.262344 7.26393 0 7.52627 0 7.84987C0 10.132 1.85668 11.9887 4.13883 11.9887C6.42098 11.9887 8.27766 10.132 8.27766 7.84987C8.27766 7.52627 8.01531 7.26393 7.69172 7.26393H7.05418L5.01504 2.33155H8.3534C8.59422 3.00034 9.23484 3.47987 9.98559 3.47987C10.7363 3.47987 11.3769 3.00034 11.6177 2.33155H14.985L12.9459 7.26393H12.3083C11.9847 7.26393 11.7224 7.52627 11.7224 7.84987C11.7224 10.132 13.5791 11.9887 15.8612 11.9887C18.1434 11.9887 20 10.132 20 7.84987C20 7.52627 19.7377 7.26393 19.4141 7.26393ZM4.13883 10.8168C2.70332 10.8168 1.5027 9.79217 1.22996 8.43581H7.0477C6.77496 9.79217 5.57434 10.8168 4.13883 10.8168ZM5.78613 7.26393H2.49152L4.13883 3.2794L5.78613 7.26393ZM9.98555 2.30799C9.67543 2.30799 9.42316 2.05573 9.42316 1.74561C9.42316 1.43549 9.67543 1.18323 9.98555 1.18323C10.2956 1.18323 10.5479 1.43549 10.5479 1.74561C10.5479 2.05573 10.2957 2.30799 9.98555 2.30799ZM15.8612 3.2794L17.5085 7.26393H14.2139L15.8612 3.2794ZM15.8612 10.8168C14.4257 10.8168 13.225 9.79217 12.9523 8.43581H18.77C18.4973 9.79217 17.2966 10.8168 15.8612 10.8168Z" fill="#5D6C7B"/>
</svg>
